<?xml version="1.0" encoding="UTF-8"?>
<!DOCTYPE svg PUBLIC "-//W3C//DTD SVG Tiny 1.2//EN" 
  "http://www.w3.org/Graphics/SVG/1.2/DTD/svg12-tiny.dtd">
<svg xmlns="http://www.w3.org/2000/svg" baseProfile="tiny-ps" version="1.2" width="175px" height="170px" style="shape-rendering:geometricPrecision; text-rendering:geometricPrecision; image-rendering:optimizeQuality; fill-rule:evenodd; clip-rule:evenodd" xmlns:xlink="http://www.w3.org/1999/xlink"><title>Home Sweet Home By Mitch</title>
<g><path style="opacity:1" fill="#fefefe" d="M -0.5,-0.5 C 57.8333,-0.5 116.167,-0.5 174.5,-0.5C 174.5,30.5 174.5,61.5 174.5,92.5C 173.833,92.5 173.167,92.5 172.5,92.5C 164.381,86.2671 156.048,80.2671 147.5,74.5C 147.5,62.1667 147.5,49.8333 147.5,37.5C 137.985,37.1731 128.652,37.5064 119.5,38.5C 119.827,43.544 119.494,48.544 118.5,53.5C 107.86,46.0266 97.3598,38.3599 87,30.5C 58.3183,51.0299 29.8183,71.6965 1.5,92.5C 0.833333,92.5 0.166667,92.5 -0.5,92.5C -0.5,61.5 -0.5,30.5 -0.5,-0.5 Z"/></g>
<g><path style="opacity:1" fill="#4a4849" d="M 119.5,38.5 C 128.5,38.5 137.5,38.5 146.5,38.5C 146.172,50.6783 146.505,62.6783 147.5,74.5C 156.048,80.2671 164.381,86.2671 172.5,92.5C 166.833,92.5 161.167,92.5 155.5,92.5C 150.002,87.822 144.169,83.4886 138,79.5C 137.5,68.8385 137.333,58.1719 137.5,47.5C 134.833,47.5 132.167,47.5 129.5,47.5C 128.833,55.5 128.167,63.5 127.5,71.5C 114.038,61.5971 100.371,51.9305 86.5,42.5C 63.4582,59.2234 40.4582,75.89 17.5,92.5C 12.1667,92.5 6.83333,92.5 1.5,92.5C 29.8183,71.6965 58.3183,51.0299 87,30.5C 97.3598,38.3599 107.86,46.0266 118.5,53.5C 119.494,48.544 119.827,43.544 119.5,38.5 Z"/></g>
<g><path style="opacity:1" fill="#9f9f9f" d="M 119.5,38.5 C 128.652,37.5064 137.985,37.1731 147.5,37.5C 147.5,49.8333 147.5,62.1667 147.5,74.5C 146.505,62.6783 146.172,50.6783 146.5,38.5C 137.5,38.5 128.5,38.5 119.5,38.5 Z"/></g>
<g><path style="opacity:1" fill="#fcfbfb" d="M 127.5,71.5 C 127.56,72.0431 127.893,72.3764 128.5,72.5C 129.498,64.1932 129.831,55.8599 129.5,47.5C 132.167,47.5 134.833,47.5 137.5,47.5C 137.333,58.1719 137.5,68.8385 138,79.5C 144.169,83.4886 150.002,87.822 155.5,92.5C 109.5,92.5 63.5,92.5 17.5,92.5C 40.4582,75.89 63.4582,59.2234 86.5,42.5C 100.371,51.9305 114.038,61.5971 127.5,71.5 Z"/></g>
<g><path style="opacity:1" fill="#848484" d="M 129.5,47.5 C 129.831,55.8599 129.498,64.1932 128.5,72.5C 127.893,72.3764 127.56,72.0431 127.5,71.5C 128.167,63.5 128.833,55.5 129.5,47.5 Z"/></g>
<g><path style="opacity:1" fill="#474848" d="M 75.5,55.5 C 78.5,55.5 81.5,55.5 84.5,55.5C 84.5,58.5 84.5,61.5 84.5,64.5C 84.5,61.5 84.5,58.5 84.5,55.5C 81.5,55.5 78.5,55.5 75.5,55.5 Z"/></g>
<g><path style="opacity:1" fill="#484647" d="M 88.5,55.5 C 91.5,55.5 94.5,55.5 97.5,55.5C 97.5,58.5 97.5,61.5 97.5,64.5C 97.5,61.5 97.5,58.5 97.5,55.5C 94.5,55.5 91.5,55.5 88.5,55.5 Z"/></g>
<g><path style="opacity:1" fill="#888787" d="M 75.5,55.5 C 78.6248,54.5206 81.9581,54.1872 85.5,54.5C 85.8128,58.0419 85.4794,61.3752 84.5,64.5C 84.5,61.5 84.5,58.5 84.5,55.5C 81.5,55.5 78.5,55.5 75.5,55.5 Z"/></g>
<g><path style="opacity:1" fill="#929091" d="M 88.5,55.5 C 91.6248,54.5206 94.9581,54.1872 98.5,54.5C 98.8128,58.0419 98.4794,61.3752 97.5,64.5C 97.5,61.5 97.5,58.5 97.5,55.5C 94.5,55.5 91.5,55.5 88.5,55.5 Z"/></g>
<g><path style="opacity:1" fill="#484747" d="M 75.5,67.5 C 78.5,67.5 81.5,67.5 84.5,67.5C 84.5,70.5 84.5,73.5 84.5,76.5C 84.5,73.5 84.5,70.5 84.5,67.5C 81.5,67.5 78.5,67.5 75.5,67.5 Z"/></g>
<g><path style="opacity:1" fill="#8c8b8c" d="M 75.5,67.5 C 78.6248,66.5206 81.9581,66.1872 85.5,66.5C 85.8128,70.0419 85.4794,73.3752 84.5,76.5C 84.5,73.5 84.5,70.5 84.5,67.5C 81.5,67.5 78.5,67.5 75.5,67.5 Z"/></g>
<g><path style="opacity:1" fill="#969595" d="M 88.5,67.5 C 91.6248,66.5206 94.9581,66.1872 98.5,66.5C 98.8128,70.0419 98.4794,73.3752 97.5,76.5C 97.5,73.5 97.5,70.5 97.5,67.5C 94.5,67.5 91.5,67.5 88.5,67.5 Z"/></g>
<g><path style="opacity:1" fill="#494646" d="M 88.5,67.5 C 91.5,67.5 94.5,67.5 97.5,67.5C 97.5,70.5 97.5,73.5 97.5,76.5C 94.5,76.5 91.5,76.5 88.5,76.5C 88.5,73.5 88.5,70.5 88.5,67.5 Z"/></g>
<g><path style="opacity:1" fill="#d98992" d="M 89.5,80.5 C 90.3478,79.375 91.3478,79.375 92.5,80.5C 92.2077,82.9572 92.2077,85.6239 92.5,88.5C 90.9724,87.1979 89.9724,85.5313 89.5,83.5C 90.625,82.3478 90.625,81.3478 89.5,80.5 Z"/></g>
<g><path style="opacity:1" fill="#e3b1b6" d="M 75.5,83.5 C 77.5,83.5 79.5,83.5 81.5,83.5C 81.8076,85.924 81.4742,88.2573 80.5,90.5C 79.8933,90.3764 79.56,90.0431 79.5,89.5C 80.6129,88.0536 80.7796,86.3869 80,84.5C 79.6667,84.8333 79.3333,85.1667 79,85.5C 77.6976,84.9152 76.531,84.2485 75.5,83.5 Z"/></g>
<g><path style="opacity:1" fill="#c74f58" d="M 89.5,80.5 C 90.625,81.3478 90.625,82.3478 89.5,83.5C 89.6602,85.1992 89.4935,86.8659 89,88.5C 88.7787,85.0569 87.7787,84.7236 86,87.5C 85.3333,84.8333 84.6667,84.8333 84,87.5C 83.3854,84.9549 83.8854,82.6215 85.5,80.5C 86.2811,81.7287 86.7811,83.062 87,84.5C 87.6622,83.0161 88.4955,81.6828 89.5,80.5 Z"/></g>
<g><path style="opacity:1" fill="#c03745" d="M 75.5,83.5 C 76.531,84.2485 77.6976,84.9152 79,85.5C 79.3333,85.1667 79.6667,84.8333 80,84.5C 80.7796,86.3869 80.6129,88.0536 79.5,89.5C 79.5,88.1667 78.8333,87.5 77.5,87.5C 76.7784,87.0825 76.2784,86.4158 76,85.5C 75.6667,85.8333 75.3333,86.1667 75,86.5C 74.51,85.2068 74.3433,83.8734 74.5,82.5C 75.206,81.4427 75.5393,81.7761 75.5,83.5 Z"/></g>
<g><path style="opacity:1" fill="#c8515e" d="M 94.5,80.5 C 93.5876,81.7382 93.4209,83.0715 94,84.5C 94.3333,84.1667 94.6667,83.8333 95,83.5C 94.9227,84.7376 95.0894,85.7376 95.5,86.5C 96.9501,85.1502 97.6168,83.4835 97.5,81.5C 98.6474,81.9637 99.6474,83.2971 100.5,85.5C 100.263,88.0635 99.763,88.0635 99,85.5C 97.0838,87.0223 94.9171,88.0223 92.5,88.5C 92.2077,85.6239 92.2077,82.9572 92.5,80.5C 93.5477,78.0673 94.2144,78.0673 94.5,80.5 Z"/></g>
<g><path style="opacity:1" fill="#eabbc1" d="M 94.5,80.5 C 95.609,80.5569 96.609,80.8902 97.5,81.5C 97.6168,83.4835 96.9501,85.1502 95.5,86.5C 95.0894,85.7376 94.9227,84.7376 95,83.5C 94.6667,83.8333 94.3333,84.1667 94,84.5C 93.4209,83.0715 93.5876,81.7382 94.5,80.5 Z"/></g>
<g><path style="opacity:1" fill="#e2a4a9" d="M 74.5,82.5 C 74.3433,83.8734 74.51,85.2068 75,86.5C 75.3333,86.1667 75.6667,85.8333 76,85.5C 76.2784,86.4158 76.7784,87.0825 77.5,87.5C 76.7455,89.4663 75.5788,89.7996 74,88.5C 73.2109,86.2884 73.3775,84.2884 74.5,82.5 Z"/></g>
<g><path style="opacity:1" fill="#af3140" d="M -0.5,92.5 C 0.166667,92.5 0.833333,92.5 1.5,92.5C 6.83333,92.5 12.1667,92.5 17.5,92.5C 63.5,92.5 109.5,92.5 155.5,92.5C 161.167,92.5 166.833,92.5 172.5,92.5C 173.167,92.5 173.833,92.5 174.5,92.5C 174.5,93.1667 174.5,93.8333 174.5,94.5C 116.167,94.5 57.8333,94.5 -0.5,94.5C -0.5,93.8333 -0.5,93.1667 -0.5,92.5 Z"/></g>
<g><path style="opacity:1" fill="#f8eaeb" d="M -0.5,94.5 C 57.8333,94.5 116.167,94.5 174.5,94.5C 174.5,95.5 174.5,96.5 174.5,97.5C 174.167,97.5 173.833,97.5 173.5,97.5C 170.713,96.5233 167.713,96.19 164.5,96.5C 164.5,100.833 164.5,105.167 164.5,109.5C 167.833,109.5 171.167,109.5 174.5,109.5C 174.5,110.5 174.5,111.5 174.5,112.5C 116.167,112.5 57.8333,112.5 -0.5,112.5C -0.5,106.5 -0.5,100.5 -0.5,94.5 Z"/></g>
<g><path style="opacity:1" fill="#be2b3a" d="M 29.5,97.5 C 30.4511,99.118 31.7844,100.451 33.5,101.5C 34.7277,98.9285 36.7277,97.5952 39.5,97.5C 39.8242,101.555 39.4909,105.555 38.5,109.5C 37.6816,106.893 37.1816,104.226 37,101.5C 35.6667,102.833 34.3333,104.167 33,105.5C 31.5952,104.269 30.4286,102.936 29.5,101.5C 28.6122,103.033 28.1122,105.366 28,108.5C 27.8333,106.667 27.6667,104.833 27.5,103C 27.5465,100.705 28.2132,98.8714 29.5,97.5 Z"/></g>
<g><path style="opacity:1" fill="#c2424a" d="M 100.5,99.5 C 99.596,100.209 99.2627,101.209 99.5,102.5C 101.833,102.5 104.167,102.5 106.5,102.5C 104.628,104.062 102.295,105.062 99.5,105.5C 101.743,106.474 104.076,106.808 106.5,106.5C 106.5,107.5 106.5,108.5 106.5,109.5C 103.5,109.5 100.5,109.5 97.5,109.5C 97.5,105.167 97.5,100.833 97.5,96.5C 100.5,96.5 103.5,96.5 106.5,96.5C 106.5,97.5 106.5,98.5 106.5,99.5C 104.5,99.5 102.5,99.5 100.5,99.5 Z"/></g>
<g><path style="opacity:1" fill="#c44249" d="M 173.5,97.5 C 173.833,97.5 174.167,97.5 174.5,97.5C 174.5,98.1667 174.5,98.8333 174.5,99.5C 172.076,99.1924 169.743,99.5258 167.5,100.5C 169.396,101.466 171.396,101.799 173.5,101.5C 173.5,102.5 173.5,103.5 173.5,104.5C 170.918,104.025 168.918,104.692 167.5,106.5C 169.292,107.309 171.292,107.809 173.5,108C 170.854,108.497 168.187,108.664 165.5,108.5C 165.5,104.833 165.5,101.167 165.5,97.5C 168.167,97.5 170.833,97.5 173.5,97.5 Z"/></g>
<g><path style="opacity:1" fill="#d18086" d="M 131.5,104.5 C 132.29,105.609 132.79,106.942 133,108.5C 133.667,104.833 133.667,101.167 133,97.5C 132.79,99.0581 132.29,100.391 131.5,101.5C 131.5,99.8333 131.5,98.1667 131.5,96.5C 132.5,96.5 133.5,96.5 134.5,96.5C 134.5,100.833 134.5,105.167 134.5,109.5C 133.5,109.5 132.5,109.5 131.5,109.5C 131.5,107.833 131.5,106.167 131.5,104.5 Z"/></g>
<g><path style="opacity:1" fill="#be2b37" d="M 125.5,97.5 C 125.5,99.1667 125.5,100.833 125.5,102.5C 127.735,102.795 129.735,102.461 131.5,101.5C 132.29,100.391 132.79,99.0581 133,97.5C 133.667,101.167 133.667,104.833 133,108.5C 132.79,106.942 132.29,105.609 131.5,104.5C 129.5,104.5 127.5,104.5 125.5,104.5C 125.785,106.288 125.452,107.955 124.5,109.5C 124.167,107.5 123.833,105.5 123.5,103.5C 123.539,101.048 124.206,99.0478 125.5,97.5 Z"/></g>
<g><path style="opacity:1" fill="#da9397" d="M 100.5,99.5 C 102.156,101.06 104.156,102.06 106.5,102.5C 104.167,102.5 101.833,102.5 99.5,102.5C 99.2627,101.209 99.596,100.209 100.5,99.5 Z"/></g>
<g><path style="opacity:1" fill="#e5abb0" d="M 125.5,97.5 C 126.434,98.5676 126.768,99.901 126.5,101.5C 128.167,101.5 129.833,101.5 131.5,101.5C 129.735,102.461 127.735,102.795 125.5,102.5C 125.5,100.833 125.5,99.1667 125.5,97.5 Z"/></g>
<g><path style="opacity:1" fill="#bc2b3b" d="M 152.5,97.5 C 153.451,99.118 154.784,100.451 156.5,101.5C 157.728,98.9285 159.728,97.5952 162.5,97.5C 162.824,101.555 162.491,105.555 161.5,109.5C 160.682,106.893 160.182,104.226 160,101.5C 158.667,102.833 157.333,104.167 156,105.5C 154.595,104.269 153.429,102.936 152.5,101.5C 151.686,103.631 151.186,105.964 151,108.5C 150.833,106.667 150.667,104.833 150.5,103C 150.547,100.705 151.213,98.8714 152.5,97.5 Z"/></g>
<g><path style="opacity:1" fill="#be2f39" d="M 8.5,96.5 C 9.80011,98.223 10.4668,100.39 10.5,103C 10.1667,105.167 9.83333,107.333 9.5,109.5C 8.54811,107.955 8.21478,106.288 8.5,104.5C 6.5,104.5 4.5,104.5 2.5,104.5C 2.78522,106.288 2.45189,107.955 1.5,109.5C 0.166667,105.5 0.166667,101.5 1.5,97.5C 2.45189,99.0453 2.78522,100.712 2.5,102.5C 4.5,102.5 6.5,102.5 8.5,102.5C 8.5,100.5 8.5,98.5 8.5,96.5 Z"/></g>
<g><path style="opacity:1" fill="#d0686e" d="M 29.5,97.5 C 28.2132,98.8714 27.5465,100.705 27.5,103C 27.6667,104.833 27.8333,106.667 28,108.5C 28.1122,105.366 28.6122,103.033 29.5,101.5C 29.5,104.167 29.5,106.833 29.5,109.5C 28.5,109.5 27.5,109.5 26.5,109.5C 26.5,105.167 26.5,100.833 26.5,96.5C 27.791,96.2627 28.791,96.596 29.5,97.5 Z"/></g>
<g><path style="opacity:1" fill="#c24449" d="M 50.5,97.5 C 48.9749,99.0358 46.9749,100.036 44.5,100.5C 46.396,101.466 48.396,101.799 50.5,101.5C 50.5,102.5 50.5,103.5 50.5,104.5C 47.9179,104.025 45.9179,104.692 44.5,106.5C 46.2922,107.309 48.2922,107.809 50.5,108C 47.854,108.497 45.1873,108.664 42.5,108.5C 42.5,104.833 42.5,101.167 42.5,97.5C 45.1667,97.5 47.8333,97.5 50.5,97.5 Z"/></g>
<g><path style="opacity:1" fill="#ca6b77" d="M 152.5,97.5 C 151.213,98.8714 150.547,100.705 150.5,103C 150.667,104.833 150.833,106.667 151,108.5C 151.186,105.964 151.686,103.631 152.5,101.5C 152.5,104.167 152.5,106.833 152.5,109.5C 151.5,109.5 150.5,109.5 149.5,109.5C 149.5,105.167 149.5,100.833 149.5,96.5C 150.791,96.2627 151.791,96.596 152.5,97.5 Z"/></g>
<g><path style="opacity:1" fill="#c4424a" d="M 139.5,96.5 C 145.653,96.4837 148.486,99.4837 148,105.5C 145.794,109.125 142.627,110.292 138.5,109C 134.334,104.368 134.667,100.202 139.5,96.5 Z"/></g>
<g><path style="opacity:1" fill="#faf0f0" d="M 139.5,99.5 C 145.704,99.3137 147.037,101.814 143.5,107C 139.945,108.123 137.945,106.789 137.5,103C 137.978,101.697 138.645,100.531 139.5,99.5 Z"/></g>
<g><path style="opacity:1" fill="#c23d44" d="M 16.5,96.5 C 22.6529,96.4837 25.4862,99.4837 25,105.5C 22.7937,109.125 19.627,110.292 15.5,109C 11.3339,104.368 11.6673,100.202 16.5,96.5 Z"/></g>
<g><path style="opacity:1" fill="#faf0f1" d="M 16.5,99.5 C 22.704,99.3137 24.0374,101.814 20.5,107C 16.9447,108.123 14.9447,106.789 14.5,103C 14.9783,101.697 15.645,100.531 16.5,99.5 Z"/></g>
<g><path style="opacity:1" fill="#bb2f3c" d="M 108.5,97.5 C 111.898,97.1796 115.232,97.513 118.5,98.5C 117.311,99.4287 115.978,99.762 114.5,99.5C 113.833,112.833 113.167,112.833 112.5,99.5C 110.517,99.8432 109.183,99.1765 108.5,97.5 Z"/></g>
<g><path style="opacity:1" fill="#fdfbfb" d="M 174.5,99.5 C 174.5,101.833 174.5,104.167 174.5,106.5C 172.167,106.5 169.833,106.5 167.5,106.5C 168.918,104.692 170.918,104.025 173.5,104.5C 173.5,103.5 173.5,102.5 173.5,101.5C 171.396,101.799 169.396,101.466 167.5,100.5C 169.743,99.5258 172.076,99.1924 174.5,99.5 Z"/></g>
<g><path style="opacity:1" fill="#c03b42" d="M 67.5,97.5 C 68.5,97.5 69.5,97.5 70.5,97.5C 71.8333,105.5 73.1667,105.5 74.5,97.5C 75.675,97.281 76.675,97.6143 77.5,98.5C 78.2357,100.541 79.0691,102.541 80,104.5C 80.516,101.749 81.6827,99.4161 83.5,97.5C 83.8333,98 84.1667,98.5 84.5,99C 82.7853,102.309 81.7853,105.809 81.5,109.5C 80.5,109.5 79.5,109.5 78.5,109.5C 77.4494,101.049 75.7828,100.716 73.5,108.5C 72.8333,109.833 72.1667,109.833 71.5,108.5C 69.8746,104.92 68.5413,101.254 67.5,97.5 Z"/></g>
<g><path style="opacity:1" fill="#be333f" d="M 58.5,96.5 C 61.1569,96.162 63.4902,96.8287 65.5,98.5C 64.0777,99.5472 62.5777,99.5472 61,98.5C 59.7202,98.6135 58.8869,99.2801 58.5,100.5C 60.9171,101.072 63.0838,102.072 65,103.5C 65.5571,109 63.0571,110.833 57.5,109C 55.3426,107.915 55.1759,106.749 57,105.5C 59.2565,108.119 61.4232,108.119 63.5,105.5C 61.6672,103.95 59.5006,102.95 57,102.5C 56.2568,100.126 56.7568,98.1261 58.5,96.5 Z"/></g>
<g><path style="opacity:1" fill="#c35055" d="M 86.5,96.5 C 89.5,96.5 92.5,96.5 95.5,96.5C 95.5,97.5 95.5,98.5 95.5,99.5C 87.5,100.167 87.5,100.833 95.5,101.5C 95.5,102.5 95.5,103.5 95.5,104.5C 87.5,105.167 87.5,105.833 95.5,106.5C 95.5,107.5 95.5,108.5 95.5,109.5C 92.5,109.5 89.5,109.5 86.5,109.5C 86.5,105.167 86.5,100.833 86.5,96.5 Z"/></g>
<g><path style="opacity:1" fill="#c96f76" d="M 50.5,97.5 C 47.8333,97.5 45.1667,97.5 42.5,97.5C 42.5,101.167 42.5,104.833 42.5,108.5C 45.1873,108.664 47.854,108.497 50.5,108C 48.2922,107.809 46.2922,107.309 44.5,106.5C 46.8333,106.5 49.1667,106.5 51.5,106.5C 51.5,107.5 51.5,108.5 51.5,109.5C 48.1667,109.5 44.8333,109.5 41.5,109.5C 41.5,105.167 41.5,100.833 41.5,96.5C 44.7131,96.19 47.7131,96.5233 50.5,97.5 Z"/></g>
<g><path style="opacity:1" fill="#ce6f78" d="M 173.5,97.5 C 170.833,97.5 168.167,97.5 165.5,97.5C 165.5,101.167 165.5,104.833 165.5,108.5C 168.187,108.664 170.854,108.497 173.5,108C 171.292,107.809 169.292,107.309 167.5,106.5C 169.833,106.5 172.167,106.5 174.5,106.5C 174.5,107.5 174.5,108.5 174.5,109.5C 171.167,109.5 167.833,109.5 164.5,109.5C 164.5,105.167 164.5,100.833 164.5,96.5C 167.713,96.19 170.713,96.5233 173.5,97.5 Z"/></g>
<g><path style="opacity:1" fill="#8e2f35" d="M -0.5,112.5 C 57.8333,112.5 116.167,112.5 174.5,112.5C 174.5,113.167 174.5,113.833 174.5,114.5C 174.167,114.5 173.833,114.5 173.5,114.5C 115.833,114.5 58.1667,114.5 0.5,114.5C 0.166667,114.5 -0.166667,114.5 -0.5,114.5C -0.5,113.833 -0.5,113.167 -0.5,112.5 Z"/></g>
<g><path style="opacity:1" fill="#6b6a6b" d="M -0.5,114.5 C -0.166667,114.5 0.166667,114.5 0.5,114.5C 0.5,120.167 0.5,125.833 0.5,131.5C 58.1667,131.5 115.833,131.5 173.5,131.5C 173.5,125.833 173.5,120.167 173.5,114.5C 173.833,114.5 174.167,114.5 174.5,114.5C 174.5,120.5 174.5,126.5 174.5,132.5C 116.167,132.5 57.8333,132.5 -0.5,132.5C -0.5,126.5 -0.5,120.5 -0.5,114.5 Z"/></g>
<g><path style="opacity:1" fill="#4b494a" d="M 0.5,114.5 C 58.1667,114.5 115.833,114.5 173.5,114.5C 173.5,120.167 173.5,125.833 173.5,131.5C 115.833,131.5 58.1667,131.5 0.5,131.5C 0.5,125.833 0.5,120.167 0.5,114.5 Z"/></g>
<g><path style="opacity:1" fill="#d5d5d5" d="M 43.5,120.5 C 44.8333,120.5 46.1667,120.5 47.5,120.5C 47.5,123.5 47.5,126.5 47.5,129.5C 45.712,129.785 44.0453,129.452 42.5,128.5C 43.8333,128.167 45.1667,127.833 46.5,127.5C 42.6369,126.374 41.6369,124.041 43.5,120.5 Z"/></g>
<g><path style="opacity:1" fill="#dadada" d="M 163.5,120.5 C 164.833,120.5 166.167,120.5 167.5,120.5C 167.5,123.5 167.5,126.5 167.5,129.5C 165.712,129.785 164.045,129.452 162.5,128.5C 163.687,128.446 165.02,128.113 166.5,127.5C 162.637,126.374 161.637,124.041 163.5,120.5 Z"/></g>
<g><path style="opacity:1" fill="#bbbabb" d="M 155.5,120.5 C 160.895,119.555 162.561,121.555 160.5,126.5C 159.167,121.167 157.833,121.167 156.5,126.5C 155.534,124.604 155.201,122.604 155.5,120.5 Z"/></g>
<g><path style="opacity:1" fill="#dcdcdc" d="M 90.5,118.5 C 92.284,119.574 93.4506,121.24 94,123.5C 94.4709,121.754 95.1376,120.087 96,118.5C 97,120.167 98,121.833 99,123.5C 99.2163,121.616 99.883,119.949 101,118.5C 101.288,121.472 100.455,124.139 98.5,126.5C 97.7568,125.092 96.9234,123.759 96,122.5C 95.4169,124.002 94.5836,125.335 93.5,126.5C 92.1028,123.974 91.1028,121.308 90.5,118.5 Z"/></g>
<g><path style="opacity:1" fill="#cacaca" d="M 60.5,120.5 C 62.3904,120.297 63.8904,120.963 65,122.5C 65.5194,121.484 66.3527,120.818 67.5,120.5C 69.2234,121.552 70.8901,121.552 72.5,120.5C 74.4461,122.044 74.9461,124.044 74,126.5C 73.0914,121.27 71.9247,121.27 70.5,126.5C 69.1667,121.167 67.8333,121.167 66.5,126.5C 65.8076,125.975 65.3076,125.308 65,124.5C 60.0971,127.437 58.5971,126.104 60.5,120.5 Z"/></g>
<g><path style="opacity:1" fill="#dddcdc" d="M 19.5,120.5 C 19.5,122.5 19.5,124.5 19.5,126.5C 14.9315,126.917 13.4315,124.917 15,120.5C 16.4111,126.931 17.9111,126.931 19.5,120.5 Z"/></g>
<g><path style="opacity:1" fill="#c8c8c7" d="M 6.5,118.5 C 8.5,118.5 10.5,118.5 12.5,118.5C 12.6265,120.915 12.7932,123.249 13,125.5C 10.9592,126.423 8.7925,126.756 6.5,126.5C 6.5,123.833 6.5,121.167 6.5,118.5 Z"/></g>
<g><path style="opacity:1" fill="#59575a" d="M 163.5,122.5 C 164.675,122.281 165.675,122.614 166.5,123.5C 164.948,124.798 163.948,124.465 163.5,122.5 Z"/></g>
<g><path style="opacity:1" fill="#e3e2e3" d="M 118.5,118.5 C 119.749,119.778 121.249,120.778 123,121.5C 123.667,123.167 123.667,124.833 123,126.5C 122.51,125.207 122.343,123.873 122.5,122.5C 121.5,122.5 120.5,122.5 119.5,122.5C 119.657,123.873 119.49,125.207 119,126.5C 118.503,123.854 118.336,121.187 118.5,118.5 Z"/></g>
<g><path style="opacity:1" fill="#dcdcdc" d="M 108.5,120.5 C 109.978,120.238 111.311,120.571 112.5,121.5C 111.675,122.386 110.675,122.719 109.5,122.5C 109.657,123.873 109.49,125.207 109,126.5C 108.505,124.527 108.338,122.527 108.5,120.5 Z"/></g>
<g><path style="opacity:1" fill="#c0bfc0" d="M 77.5,120.5 C 80.5,120.167 81.8333,121.5 81.5,124.5C 78.4017,124.413 78.0684,124.913 80.5,126C 76.5369,126.118 75.5369,124.284 77.5,120.5 Z"/></g>
<g><path style="opacity:1" fill="#535353" d="M 60.5,122.5 C 63.5476,122.494 64.0476,123.494 62,125.5C 60.9614,124.756 60.4614,123.756 60.5,122.5 Z"/></g>
<g><path style="opacity:1" fill="#535353" d="M 43.5,122.5 C 44.675,122.281 45.675,122.614 46.5,123.5C 44.9483,124.798 43.9483,124.465 43.5,122.5 Z"/></g>
<g><path style="opacity:1" fill="#b5b5b5" d="M 35.5,120.5 C 40.8946,119.555 42.5613,121.555 40.5,126.5C 39.1667,121.167 37.8333,121.167 36.5,126.5C 35.5344,124.604 35.2011,122.604 35.5,120.5 Z"/></g>
<g><path style="opacity:1" fill="#919092" d="M 19.5,126.5 C 19.5,124.5 19.5,122.5 19.5,120.5C 20.1515,119.909 20.8182,119.243 21.5,118.5C 22.48,121.086 22.8134,123.753 22.5,126.5C 21.5,126.5 20.5,126.5 19.5,126.5 Z"/></g>
<g><path style="opacity:1" fill="#b1b0b2" d="M 152.5,118.5 C 153.748,119.334 154.415,120.667 154.5,122.5C 153.801,127.766 153.134,127.766 152.5,122.5C 151.5,122.5 150.5,122.5 149.5,122.5C 149.657,123.873 149.49,125.207 149,126.5C 148.505,124.527 148.338,122.527 148.5,120.5C 150.483,120.843 151.817,120.176 152.5,118.5 Z"/></g>
<g><path style="opacity:1" fill="#8c8c8d" d="M 146.5,126.5 C 146.66,124.801 146.494,123.134 146,121.5C 144.562,126.796 143.395,126.796 142.5,121.5C 143.919,120.549 145.585,120.216 147.5,120.5C 147.795,122.735 147.461,124.735 146.5,126.5 Z"/></g>
<g><path style="opacity:1" fill="#d1d0d1" d="M 127.5,118.5 C 129.288,118.215 130.955,118.548 132.5,119.5C 131.313,119.554 129.98,119.887 128.5,120.5C 129.991,121.244 131.491,121.91 133,122.5C 133.684,123.784 133.517,124.951 132.5,126C 130.741,126.798 129.074,126.631 127.5,125.5C 128.729,124.719 130.062,124.219 131.5,124C 128.574,123.313 127.241,121.48 127.5,118.5 Z"/></g>
<g><path style="opacity:1" fill="#bfbebf" d="M 83.5,120.5 C 86.5983,120.413 86.9316,120.913 84.5,122C 88.5015,125.495 87.8348,126.661 82.5,125.5C 82.5786,123.872 82.9119,122.205 83.5,120.5 Z"/></g>
<g><path style="opacity:1" fill="#d4d4d4" d="M 51.5,118.5 C 52.404,119.209 52.7373,120.209 52.5,121.5C 53.8333,121.5 55.1667,121.5 56.5,121.5C 56.281,120.325 56.6143,119.325 57.5,118.5C 58.8333,121.167 58.8333,123.833 57.5,126.5C 56.6143,125.675 56.281,124.675 56.5,123.5C 55.1667,123.5 53.8333,123.5 52.5,123.5C 52.6495,124.552 52.4828,125.552 52,126.5C 51.5026,123.854 51.3359,121.187 51.5,118.5 Z"/></g>
<g><path style="opacity:1" fill="#b4b4b4" d="M 23.5,118.5 C 25.045,119.23 25.8784,120.563 26,122.5C 31.498,116.687 33.6647,118.021 32.5,126.5C 29.9556,126.896 27.7889,126.229 26,124.5C 25.6924,125.308 25.1924,125.975 24.5,126.5C 23.52,123.914 23.1866,121.247 23.5,118.5 Z"/></g>
<g><path style="opacity:1" fill="#c1c1c2" d="M 142.5,121.5 C 143.395,126.796 144.562,126.796 146,121.5C 146.494,123.134 146.66,124.801 146.5,126.5C 144.234,126.859 142.401,126.192 141,124.5C 140.692,125.308 140.192,125.975 139.5,126.5C 138.167,121.167 136.833,121.167 135.5,126.5C 133.403,118.434 135.069,117.1 140.5,122.5C 141.183,122.137 141.85,121.804 142.5,121.5 Z"/></g>
<g><path style="opacity:1" fill="#e3e2e3" d="M 114.5,119.5 C 116.773,120.271 117.106,121.604 115.5,123.5C 115.818,124.647 116.484,125.481 117.5,126C 116.552,126.483 115.552,126.649 114.5,126.5C 113.933,124.031 113.933,121.698 114.5,119.5 Z"/></g>
<g><path style="opacity:1" fill="#bdbcbd" d="M 103.5,120.5 C 107.35,120.701 108.35,122.534 106.5,126C 101.289,126.546 100.289,124.713 103.5,120.5 Z"/></g>
<g><path style="opacity:1" fill="#464547" d="M 103.5,122.5 C 105.337,122.639 105.67,123.306 104.5,124.5C 103.702,124.043 103.369,123.376 103.5,122.5 Z"/></g>
<g><path style="opacity:1" fill="#878686" d="M 7.5,119.5 C 8.97782,119.238 10.3112,119.571 11.5,120.5C 10.8333,120.833 10.1667,121.167 9.5,121.5C 8.28665,121.253 7.61998,120.586 7.5,119.5 Z"/></g>
<g><path style="opacity:1" fill="#fefffe" d="M -0.5,132.5 C 57.8333,132.5 116.167,132.5 174.5,132.5C 174.5,144.833 174.5,157.167 174.5,169.5C 116.167,169.5 57.8333,169.5 -0.5,169.5C -0.5,157.167 -0.5,144.833 -0.5,132.5 Z"/></g>
</svg>
